# xmcd
#
# Track frame offsets:
#	150
#	11272
#	38926
#	50626
#	67348
#	79980
#	93394
#	103885
#	123737
#	137255
#	152772
#	170883
#	181477
#	196936
#
# Disc length: 2769 seconds
#
# Revision: 1
# Processed by: cddbd v1.5.1PL0 Copyright (c) Steve Scherf et al.
# Submitted via: EasyCDDAExtractor 7.0.6.1
#
DISCID=c80acf0e
DTITLE=Booze and Blues
DYEAR=2002
DGENRE=Blues
TTITLE0=John Lee Hooker-boom boom
TTITLE1=Muddy Waters-caldonia
TTITLE2=Lowell Fulson-blood,sweat and tears
TTITLE3=Albert King-get out of my life
TTITLE4=T-bone Walker-hypin' woman blues
TTITLE5=Eddi Taylor-big town playboy
TTITLE6=Elmore James Jr.-bad feeling
TTITLE7=Albert Collins-too many dirty dishes
TTITLE8=Sonny Boy Williamson-good morning, little schoolgirl
TTITLE9=Bessie Smith-careless love blues
TTITLE10=Lightning Hopkins-mojo hand
TTITLE11=Arthur 'Big Boy' Crudup-that's all right
TTITLE12=Big Joe Williams-nobody knows you when your down and out
TTITLE13=Robert Johnson-from four till Late
EXTD=
EXTT0=
EXTT1=
EXTT2=
EXTT3=
EXTT4=
EXTT5=
EXTT6=
EXTT7=
EXTT8=
EXTT9=
EXTT10=
EXTT11=
EXTT12=
EXTT13=
PLAYORDER=
